:SAMPLES-PER-SECOND 24
:FULLY-SPECIFIED
:DEGREES
650
root  -4.8766 40.0085 13.4143 128.462 3.45871 85.4045
RightUpLeg  -27.4672 -48.9123 -65.4264
RightLeg  -3.87819 -40.0887 4.17453
RightFoot  0.759933 1.08971 -10.2176
RightToes  -1.74623e-010 0 -2.59999e-017
Spine  6.36483 -5.06792 9.42083
Spine1  11.5167 4.2769 -24.7712
HEad  -10.7386 37.8394 -36.212
LeftShoulder1  2.17583 -2.93544 -27.7093
LeftArm  9.79284 11.7576 -16.992
LeftForeArm  161.543 -66.8678 -156.166
LeftHand  0.116592 12.3204 2.94939
RightShoulder  3.07699 5.71271 27.4081
RightArm  2.79069 -22.8342 23.9959
RightForeArm  20.1095 66.0231 24.1579
RightHand  -1.40188 4.29761 -16.9579
LeftUpLeg  -1.7455 25.3806 31.0085
LeftLeg  99.129 0.0980673 -2.43273
LeftFoot  39.434 5.60264 -12.3324
LeftToes  -6.27559e-011 -2.10356e-011 8.24929e-012
651
root  -5.75514 39.7827 14.1541 135.601 3.936 92.152
RightUpLeg  -25.5628 -48.0657 -65.9456
RightLeg  1.80885 -48.72 0.731947
RightFoot  -0.961328 1.04159 -11.4509
RightToes  -1.74623e-010 0 -2.59999e-017
Spine  7.86704 -5.40387 12.0378
Spine1  10.9673 5.14069 -25.8109
HEad  -10.9685 33.1001 -34.6828
LeftShoulder1  2.23309 -3.07338 -27.8716
LeftArm  8.02956 8.44688 -14.7226
LeftForeArm  155.831 -67.4 -154.883
LeftHand  0.122042 12.4871 2.98432
RightShoulder  3.11035 5.82545 27.3575
RightArm  2.81075 -14.4063 33.385
RightForeArm  20.6517 64.7464 22.5507
RightHand  -1.48473 5.16782 -16.5101
LeftUpLeg  -4.567 31.5613 25.1262
LeftLeg  116.422 0.347753 -1.64402
LeftFoot  39.5788 6.3196 -13.7611
LeftToes  -6.27559e-011 -2.10356e-011 8.24929e-012
652
root  -6.00187 39.5748 15.1391 142.607 4.17029 98.9751
RightUpLeg  -23.3157 -46.6658 -64.8676
RightLeg  8.41306 -56.4585 -3.80766
RightFoot  -3.42674 0.718526 -10.6708
RightToes  -1.74623e-010 0 -2.59999e-017
Spine  8.07319 -4.45374 13.24
Spine1  10.3954 6.42162 -26.3735
HEad  -9.41291 29.8076 -33.9928
LeftShoulder1  2.24769 -3.10385 -27.9404
LeftArm  5.86967 7.28688 -13.2512
LeftForeArm  156.997 -67.396 -155.03
LeftHand  0.114648 10.8984 3.52272
RightShoulder  3.19218 6.00149 27.611
RightArm  5.94081 -7.38026 41.0875
RightForeArm  22.1028 64.8745 22.5229
RightHand  -1.45329 5.76435 -15.3486
LeftUpLeg  -5.31357 36.3708 23.5902
LeftLeg  124.149 -1.15675 1.14225
LeftFoot  44.7318 8.05095 -15.5998
LeftToes  -6.27559e-011 -2.10356e-011 8.24929e-012
653
root  -6.05385 39.734 16.1344 149.657 3.87466 105.826
RightUpLeg  -20.0569 -45.7221 -62.8169
RightLeg  10.504 -60.821 -4.35459
RightFoot  -3.21309 0.728851 -10.5224
RightToes  -1.74623e-010 0 -2.59999e-017
Spine  7.52123 -3.27755 12.9827
Spine1  8.79092 7.36602 -25.9191
HEad  -7.62255 27.0716 -32.4499
LeftShoulder1  2.12345 -2.9953 -26.5511
LeftArm  3.61622 9.71849 -13.6281
LeftForeArm  156.746 -66.2784 -156.237
LeftHand  0.150375 10.6393 4.40759
RightShoulder  3.10865 5.89071 27.1001
RightArm  9.14175 -3.30291 47.9336
RightForeArm  25.3114 65.7499 23.1789
RightHand  -1.27275 6.00319 -13.2266
LeftUpLeg  -5.0748 36.077 25.3815
LeftLeg  123.494 1.68554 -2.85136
LeftFoot  43.5374 8.86574 -17.5431
LeftToes  -6.27559e-011 -2.10356e-011 8.24929e-012
654
root  -5.59 40.4197 16.9791 155.841 2.19778 112.437
RightUpLeg  -14.3455 -43.8706 -62.253
RightLeg  10.7884 -57.2176 -2.71592
RightFoot  -0.0398194 0.877632 -8.86249
RightToes  -1.74623e-010 0 -2.59999e-017
Spine  5.29087 -1.81951 11.5143
Spine1  8.42798 7.93453 -24.3192
HEad  -5.45229 23.0142 -29.3999
LeftShoulder1  2.03177 -2.90994 -25.5179
LeftArm  2.24607 10.966 -15.177
LeftForeArm  155.66 -65.4443 -156.977
LeftHand  0.307351 11.7801 6.4882
RightShoulder  3.0568 5.72033 27.1526
RightArm  9.88554 -2.65331 51.3305
RightForeArm  30.1063 67.9442 25.6219
RightHand  -1.12255 5.84498 -11.872
LeftUpLeg  -4.3004 32.0879 27.4556
LeftLeg  115.725 2.64868 -5.53225
LeftFoot  38.8318 6.66277 -14.7054
LeftToes  -6.27559e-011 -2.10356e-011 8.24929e-012
655
root  -5.16912 41.291 17.7123 161.767 0.374481 119.168
RightUpLeg  -9.6606 -40.9411 -60.5117
RightLeg  10.6158 -44.2718 0.462029
RightFoot  5.55333 1.16469 -7.54803
RightToes  -1.74623e-010 0 -2.59999e-017
Spine  1.45561 -0.210347 10.787
Spine1  9.23884 8.52351 -22.4272
HEad  -2.56698 18.2726 -26.5175
LeftShoulder1  2.07533 -2.98141 -25.8529
LeftArm  2.12845 11.1881 -17.4728
LeftForeArm  156.679 -65.8206 -156.706
LeftHand  0.442603 11.5477 9.15159
RightShoulder  3.02277 5.66381 26.9827
RightArm  10.7069 -3.70246 50.9415
RightForeArm  33.7563 70.3299 29.3146
RightHand  -1.0263 5.33594 -11.3758
LeftUpLeg  -2.53266 28.4972 28.3603
LeftLeg  106.31 1.40227 -5.06095
LeftFoot  35.769 4.46346 -10.7565
LeftToes  -6.27559e-011 -2.10356e-011 8.24929e-012
656
root  -5.21109 41.8373 18.6049 167.437 -1.6243 126.842
RightUpLeg  -10.5138 -44.3364 -54.006
RightLeg  15.5023 -18.8252 -0.351333
RightFoot  10.4648 1.12428 -5.51997
RightToes  -1.74623e-010 0 -2.59999e-017
Spine  -0.956545 0.500976 11.5599
Spine1  8.24279 7.94865 -20.5176
HEad  -0.472866 14.6056 -24.7913
LeftShoulder1  2.05766 -2.95537 -25.7053
LeftArm  2.19696 13.0191 -21.5841
LeftForeArm  156.658 -66.476 -156.016
LeftHand  0.457726 11.117 10.0319
RightShoulder  2.76329 5.39111 24.9863
RightArm  12.2489 -5.41206 50.533
RightForeArm  34.09 71.0671 30.871
RightHand  -0.947375 4.62514 -11.2367
LeftUpLeg  -1.73739 27.2898 28.3845
LeftLeg  99.4409 1.19864 -7.28951
LeftFoot  33.7261 4.26662 -10.787
LeftToes  -6.27559e-011 -2.10356e-011 8.24929e-012
657
root  -5.27289 41.6842 19.5867 171.761 -5.7858 134.806
RightUpLeg  -8.92098 -42.7674 -48.6481
RightLeg  20.8147 2.12563 0.723554
RightFoot  7.71003 0.298927 -1.46502
RightToes  -1.74623e-010 0 -2.59999e-017
Spine  -1.77226 0.0888007 10.1358
Spine1  7.04 5.69803 -16.4018
HEad  -0.619069 11.1635 -22.2383
LeftShoulder1  1.89865 -2.7599 -24.0861
LeftArm  1.67626 14.4049 -28.4809
LeftForeArm  156.747 -67.203 -155.219
LeftHand  0.479527 11.6366 9.65494
RightShoulder  2.48981 5.02561 23.0135
RightArm  12.8694 -6.90647 49.2872
RightForeArm  33.013 71.2319 31.486
RightHand  -0.796756 3.49174 -10.6388
LeftUpLeg  -2.25004 26.6819 27.9895
LeftLeg  94.0634 0.862333 -10.541
LeftFoot  32.0405 4.80725 -12.5659
LeftToes  -6.27559e-011 -2.10356e-011 8.24929e-012
658
root  -5.18934 41.1661 20.5644 175.373 -12.0538 141.799
RightUpLeg  -4.27066 -34.7358 -43.7989
RightLeg  20.454 4.42883 1.87827
RightFoot  0.484015 0.00164352 -0.0974461
RightToes  -1.74623e-010 0 -2.59999e-017
Spine  -2.97899 -0.778493 7.43135
Spine1  7.75746 3.46152 -11.7679
HEad  -1.83725 6.06229 -17.3632
LeftShoulder1  1.65672 -2.56947 -20.8731
LeftArm  1.71143 12.7818 -36.8963
LeftForeArm  159.175 -68.2939 -154.219
LeftHand  0.458637 11.5881 9.3496
RightShoulder  2.38597 4.8507 22.3437
RightArm  11.5865 -8.36621 46.1026
RightForeArm  33.2125 72.039 33.5016
RightHand  -0.621451 2.34304 -9.52125
LeftUpLeg  -2.67585 26.5389 26.2558
LeftLeg  87.498 -0.345847 -10.7534
LeftFoot  28.2882 4.79967 -13.7668
LeftToes  -6.27559e-011 -2.10356e-011 8.24929e-012
659
root  -5.23836 40.666 21.756 179.016 -18.8456 147.302
RightUpLeg  -5.28626 -27.7435 -36.0855
RightLeg  19.1008 -7.01984 -1.82297
RightFoot  -1.51159 0.283806 -3.32064
RightToes  -1.74623e-010 0 -2.59999e-017
Spine  -3.65169 -2.06374 7.743
Spine1  8.22141 1.97301 -11.1722
HEad  -3.27305 0.490478 -12.7626
LeftShoulder1  1.47168 -2.43261 -18.2022
LeftArm  3.12549 9.20369 -42.8347
LeftForeArm  160.467 -68.7365 -153.827
LeftHand  0.41769 11.2292 9.10522
RightShoulder  2.31024 4.64465 22.1235
RightArm  9.70659 -9.23 43.0408
RightForeArm  31.5799 71.22 31.7821
RightHand  -0.527523 1.22714 -9.41382
LeftUpLeg  -2.39947 27.0405 21.5589
LeftLeg  77.4777 -1.87532 -8.71745
LeftFoot  23.7201 4.16307 -13.5966
LeftToes  -6.27559e-011 -2.10356e-011 8.24929e-012
660
root  -5.5491 40.0866 23.2084 -177.977 -26.4851 151.308
RightUpLeg  -10.0593 -30.4732 -30.8523
RightLeg  22.9996 -13.1595 -6.00764
RightFoot  0.257658 0.687965 -6.71526
RightToes  -1.74623e-010 0 -2.59999e-017
Spine  -3.39155 -3.90297 8.48533
Spine1  8.48437 -0.10353 -11.3146
HEad  -5.4843 -4.01422 -10.6787
LeftShoulder1  1.4716 -2.34862 -18.5862
LeftArm  6.02995 4.65061 -45.9753
LeftForeArm  158.724 -68.988 -153.294
LeftHand  0.430891 11.291 9.26278
RightShoulder  2.28196 4.44881 22.4913
RightArm  8.34802 -8.55853 38.4214
RightForeArm  28.7248 68.741 27.1863
RightHand  -0.25851 -2.15355 -9.11763
LeftUpLeg  -1.0629 25.5514 14.994
LeftLeg  63.052 -3.82481 -7.55568
LeftFoot  25.55 4.39708 -13.6165
LeftToes  -6.27559e-011 -2.10356e-011 8.24929e-012
661
root  -5.85741 39.5524 24.6107 -176.009 -34.9618 154.525
RightUpLeg  -12.075 -36.9912 -28.9311
RightLeg  26.277 -13.6679 -7.45792
RightFoot  1.47406 0.653015 -5.71601
RightToes  -1.74623e-010 0 -2.59999e-017
Spine  -2.78703 -5.08114 6.01182
Spine1  8.89472 -2.55574 -7.53247
HEad  -6.85031 -9.20374 -8.69348
LeftShoulder1  1.58842 -2.51282 -19.9337
LeftArm  11.6663 -0.825891 -50.6187
LeftForeArm  155.125 -71.2574 -149.419
LeftHand  0.39998 10.683 9.59258
RightShoulder  2.33257 4.4723 23.0746
RightArm  5.51452 -9.49816 31.848
RightForeArm  28.1897 67.2322 24.8087
RightHand  0.0306313 -6.37471 -6.8235
LeftUpLeg  3.13347 22.8486 10.932
LeftLeg  45.5946 -6.82464 -7.01163
LeftFoot  27.2381 5.55583 -16.2827
LeftToes  -6.27559e-011 -2.10356e-011 8.24929e-012
662
root  -6.02989 39.1625 26.016 -174.149 -41.7275 157.231
RightUpLeg  -13.9794 -39.9692 -26.7386
RightLeg  26.6691 -16.1719 -8.87055
RightFoot  3.55515 0.605635 -4.43049
RightToes  -1.74623e-010 0 -2.59999e-017
Spine  -1.07974 -4.72674 2.25385
Spine1  7.3459 -3.71269 -3.46627
HEad  -6.75763 -15.6166 -4.94938
LeftShoulder1  1.63647 -2.77384 -19.5792
LeftArm  18.8644 -5.745 -57.3162
LeftForeArm  149.688 -74.1637 -142.771
LeftHand  0.287235 9.53532 9.02301
RightShoulder  2.33922 4.53377 22.9247
RightArm  1.79594 -12.2431 27.0031
RightForeArm  25.722 65.0556 22.2868
RightHand  0.0679027 -7.28004 -6.18805
LeftUpLeg  8.87203 22.4017 9.11323
LeftLeg  28.5391 -8.37268 -4.58559
LeftFoot  14.7084 4.2568 -18.5681
LeftToes  -6.27559e-011 -2.10356e-011 8.24929e-012
